<?xml version="1.0" encoding="utf-8"?>
<!-- Generator: Adobe Illustrator 27.6.1, SVG Export Plug-In . SVG Version: 6.00 Build 0)  -->
<svg version="1.1" id="Vrstva_1" xmlns="http://www.w3.org/2000/svg" xmlns:xlink="http://www.w3.org/1999/xlink" x="0px" y="0px"
	 viewBox="0 0 1276.5 1412.9" style="enable-background:new 0 0 1276.5 1412.9;" xml:space="preserve">
<style type="text/css">
	.st0{fill:#7F5635;}
	.st1{fill:#BA8153;}
	.st2{fill:#75593D;}
	.st3{fill:#3072B6;}
	.st4{fill:#3CA0DA;}
	.st5{fill:#4D87C6;}
	.st6{fill:#A9794C;}
	.st7{fill:none;}
</style>
<g>
	<path class="st0" d="M816.4,897.8V1103l-177.6,103.5l0.6-205.5L816.4,897.8L816.4,897.8z"/>
	<path class="st1" d="M639.4,1001l-0.6,205.5L461.3,1103V897.8L639.4,1001L639.4,1001z"/>
	<path class="st2" d="M816.4,897.8l-177,103.2L461.3,897.8l176.9-103.2L816.4,897.8L816.4,897.8L816.4,897.8z"/>
	<path class="st3" d="M639.4,412.9L461.3,309.7l-0.6,205.5l178.1,103.2l176.9-103.2l0.6-205.5L639.4,412.9L639.4,412.9L639.4,412.9z
		"/>
	<path class="st4" d="M816.4,309.7l-177,103.2L461.3,309.7l178.1-103.2L816.4,309.7L816.4,309.7L816.4,309.7z"/>
	<path class="st5" d="M1070,456.7l-0.6,205.5l-177,103.2l0.6-205.5L1070,456.7L1070,456.7z"/>
	<path class="st3" d="M893,559.9l-0.6,205.5l-178-103.3l0.6-205.5L893,559.9L893,559.9z"/>
	<path class="st4" d="M1070,456.7L893,559.9L714.9,456.7l177-103.2L1070,456.7L1070,456.7z"/>
	<path class="st3" d="M562.1,457l-0.6,205.5l-177,103.2l0.6-205.5L562.1,457L562.1,457z"/>
	<path class="st4" d="M385.1,560.2l-0.6,205.5L206.4,662.4l0.5-205.4L385.1,560.2L385.1,560.2z"/>
	<path class="st4" d="M562,457.1L385,560.3L206.9,457l177-103.2L562,457.1L562,457.1z"/>
	<path class="st6" d="M816.4,603.7l-177,103.2l-178-103.2l178.1-103.2L816.4,603.7L816.4,603.7z"/>
	<path class="st0" d="M816.4,603.7v205.5L638.8,912.4l0.6-205.5L816.4,603.7L816.4,603.7z"/>
	<path class="st1" d="M639.4,706.9l-0.6,205.5L461.3,809.2V603.7L639.4,706.9z"/>
</g>
<rect class="st7" width="1276.5" height="1412.9"/>
</svg>
